<?xml version="1.0" standalone="no"?>
<!DOCTYPE svg PUBLIC "-//W3C//DTD SVG 20010904//EN"
 "http://www.w3.org/TR/2001/REC-SVG-20010904/DTD/svg10.dtd">
<svg version="1.0" xmlns="http://www.w3.org/2000/svg"
 width="256.000000pt" height="256.000000pt" viewBox="0 0 256.000000 256.000000"
 preserveAspectRatio="xMidYMid meet">

<g transform="translate(0.000000,256.000000) scale(0.100000,-0.100000)"
fill="#000000" stroke="none">
<path d="M1086 2544 c-272 -42 -508 -164 -707 -363 -158 -158 -248 -303 -314
-506 -39 -119 -65 -277 -65 -395 0 -177 54 -409 130 -561 125 -249 340 -464
589 -589 152 -76 384 -130 561 -130 177 0 409 54 561 130 249 125 464 340 589
589 76 152 130 384 130 561 0 177 -54 409 -130 561 -125 249 -340 464 -589
589 -217 108 -508 153 -755 114z m-192 -780 c130 -33 269 -130 341 -236 l32
-48 28 40 c78 113 219 211 350 245 68 17 286 21 316 5 10 -6 26 -25 35 -43 24
-46 13 -216 -21 -324 -76 -243 -319 -422 -572 -423 l-53 0 0 -158 c0 -145 -2
-160 -20 -180 -30 -32 -82 -30 -109 4 -19 24 -21 40 -21 180 l0 154 -52 0
c-266 1 -515 197 -583 457 -9 36 -15 104 -15 182 0 166 -5 161 158 161 81 0
146 -6 186 -16z"/>
<path d="M684 1626 c-3 -8 -1 -49 5 -91 32 -229 216 -395 437 -395 74 0 72 -4
53 110 -23 146 -115 272 -243 336 -97 47 -240 70 -252 40z"/>
<path d="M1715 1630 c-184 -38 -318 -165 -360 -341 -8 -35 -15 -83 -15 -106
l0 -43 65 0 c165 0 318 100 393 257 28 60 35 89 40 158 l5 85 -44 -1 c-24 -1
-62 -5 -84 -9z"/>
</g>
</svg>
